<svg xmlns="http://www.w3.org/2000/svg" width="64" height="64" viewBox="0 0 64 64"><defs><filter id="rough" x="-10%" y="-10%" width="120%" height="120%">
  <feTurbulence type="fractalNoise" baseFrequency="0.22" numOctaves="2" seed="4" result="e"/>
  <feDisplacementMap in="SourceGraphic" in2="e" scale="1.6" xChannelSelector="R" yChannelSelector="G"/>
</filter>
<filter id="wash" x="-10%" y="-10%" width="120%" height="120%">
  <feTurbulence type="fractalNoise" baseFrequency="0.16" numOctaves="3" seed="21" result="e"/>
  <feDisplacementMap in="SourceGraphic" in2="e" scale="2.2" xChannelSelector="R" yChannelSelector="G" result="s"/>
  <feTurbulence type="fractalNoise" baseFrequency="0.07" numOctaves="2" seed="5" result="d"/>
  <feColorMatrix in="d" type="matrix" values="0 0 0 0 0  0 0 0 0 0  0 0 0 0 0  0.9 0 0 0 0.45" result="dA"/>
  <feComposite in="s" in2="dA" operator="in" result="body"/>
  <feGaussianBlur in="s" stdDeviation="0.35" result="soft"/>
  <feComposite in="soft" in2="body" operator="arithmetic" k2="0.35" k3="0.75"/>
</filter>
<filter id="dry" x="-10%" y="-30%" width="120%" height="160%">
  <feTurbulence type="fractalNoise" baseFrequency="0.25" numOctaves="2" seed="2" result="e"/>
  <feDisplacementMap in="SourceGraphic" in2="e" scale="1.2" xChannelSelector="R" yChannelSelector="G" result="s"/>
  <feTurbulence type="fractalNoise" baseFrequency="0.03 1.1" numOctaves="2" seed="9" result="h"/>
  <feColorMatrix in="h" type="matrix" values="0 0 0 0 0  0 0 0 0 0  0 0 0 0 0  4 0 0 0 -0.9" result="hA"/>
  <feComposite in="s" in2="hA" operator="in"/>
</filter></defs><g filter="url(#wash)"><path d="M14 5 L41 5 L52 16 L52 59 L14 59 Z" fill="#FBF8F2"/><path d="M41 5 L41 16 L52 16 Z" fill="#E4DDCF"/></g><g filter="url(#rough)" fill="#3A3733"><path d="M14.50 4.50 L15.00 5.32 L15.53 5.58 L16.10 5.77 L16.68 5.81 L17.29 5.81 L17.92 5.81 L18.56 5.82 L19.22 5.82 L19.90 5.83 L20.59 5.83 L21.29 5.84 L22.00 5.84 L22.73 5.85 L23.46 5.86 L24.20 5.86 L24.95 5.87 L25.70 5.88 L26.46 5.89 L27.21 5.89 L27.97 5.90 L28.73 5.91 L29.49 5.91 L30.25 5.92 L31.00 5.93 L31.74 5.93 L32.49 5.94 L33.22 5.95 L33.94 5.95 L34.66 5.96 L35.36 5.97 L36.05 5.97 L36.72 5.98 L37.39 5.98 L38.03 5.99 L38.66 5.99 L39.26 5.99 L39.85 6.00 L40.42 6.00 L40.96 6.00 L41.48 6.00 L41.52 4.40 L41.00 4.37 L40.46 4.35 L39.89 4.32 L39.31 4.29 L38.70 4.26 L38.08 4.24 L37.43 4.21 L36.77 4.18 L36.10 4.15 L35.41 4.12 L34.70 4.09 L33.99 4.06 L33.27 4.02 L32.54 3.99 L31.80 3.96 L31.05 3.93 L30.30 3.90 L29.54 3.86 L28.79 3.83 L28.03 3.80 L27.27 3.77 L26.51 3.74 L25.76 3.70 L25.00 3.67 L24.26 3.64 L23.52 3.61 L22.79 3.58 L22.06 3.55 L21.35 3.51 L20.65 3.48 L19.96 3.45 L19.28 3.42 L18.62 3.39 L17.98 3.36 L17.35 3.34 L16.75 3.31 L16.16 3.31 L15.59 3.47 L15.04 3.71 L14.50 4.50 Z"/><path d="M41.00 4.60 L40.74 5.31 L40.82 5.69 L40.96 6.04 L41.19 6.31 L41.46 6.56 L41.74 6.83 L42.02 7.10 L42.31 7.38 L42.60 7.66 L42.90 7.95 L43.21 8.25 L43.52 8.55 L43.84 8.86 L44.16 9.17 L44.48 9.48 L44.81 9.79 L45.14 10.11 L45.47 10.43 L45.80 10.75 L46.13 11.07 L46.46 11.39 L46.79 11.71 L47.12 12.03 L47.45 12.35 L47.77 12.67 L48.10 12.98 L48.42 13.29 L48.73 13.59 L49.05 13.89 L49.35 14.19 L49.65 14.48 L49.95 14.77 L50.24 15.04 L50.52 15.32 L50.80 15.58 L51.06 15.84 L51.32 16.08 L51.57 16.32 L51.81 16.55 L52.03 16.77 L53.17 15.63 L52.95 15.41 L52.72 15.17 L52.48 14.92 L52.24 14.66 L51.98 14.40 L51.72 14.12 L51.44 13.84 L51.17 13.55 L50.88 13.25 L50.59 12.95 L50.29 12.65 L49.99 12.33 L49.69 12.02 L49.38 11.70 L49.07 11.37 L48.75 11.05 L48.43 10.72 L48.11 10.39 L47.79 10.06 L47.47 9.73 L47.15 9.40 L46.83 9.07 L46.51 8.74 L46.19 8.41 L45.88 8.08 L45.57 7.76 L45.26 7.44 L44.95 7.12 L44.65 6.81 L44.35 6.50 L44.06 6.20 L43.78 5.91 L43.50 5.62 L43.23 5.34 L42.96 5.06 L42.71 4.79 L42.44 4.56 L42.09 4.42 L41.71 4.34 L41.00 4.60 Z"/><path d="M52.20 15.50 L51.27 16.35 L51.00 17.23 L50.81 18.15 L50.80 19.11 L50.82 20.09 L50.85 21.11 L50.87 22.16 L50.90 23.23 L50.92 24.33 L50.95 25.45 L50.97 26.59 L51.00 27.75 L51.02 28.93 L51.05 30.12 L51.07 31.32 L51.10 32.54 L51.12 33.76 L51.15 34.99 L51.17 36.22 L51.20 37.46 L51.23 38.69 L51.25 39.92 L51.28 41.15 L51.30 42.37 L51.33 43.59 L51.35 44.79 L51.38 45.98 L51.40 47.16 L51.43 48.32 L51.45 49.46 L51.48 50.58 L51.50 51.68 L51.53 52.75 L51.55 53.80 L51.58 54.82 L51.60 55.80 L51.63 56.76 L51.65 57.68 L51.68 58.56 L51.70 59.40 L53.10 59.40 L53.12 58.55 L53.13 57.67 L53.15 56.75 L53.16 55.80 L53.18 54.81 L53.19 53.79 L53.21 52.74 L53.22 51.67 L53.24 50.57 L53.25 49.45 L53.27 48.31 L53.28 47.15 L53.30 45.97 L53.31 44.78 L53.33 43.58 L53.34 42.36 L53.36 41.14 L53.37 39.91 L53.39 38.68 L53.40 37.44 L53.41 36.21 L53.43 34.98 L53.44 33.75 L53.46 32.53 L53.47 31.31 L53.49 30.11 L53.50 28.92 L53.52 27.74 L53.53 26.58 L53.55 25.44 L53.56 24.32 L53.58 23.22 L53.59 22.15 L53.61 21.10 L53.62 20.08 L53.64 19.09 L53.62 18.14 L53.42 17.22 L53.13 16.34 L52.20 15.50 Z"/><path d="M52.80 59.20 L52.04 58.21 L51.25 57.92 L50.42 57.72 L49.57 57.70 L48.69 57.73 L47.78 57.76 L46.84 57.78 L45.89 57.81 L44.91 57.84 L43.90 57.87 L42.88 57.89 L41.85 57.92 L40.80 57.95 L39.74 57.98 L38.66 58.01 L37.58 58.04 L36.49 58.06 L35.39 58.09 L34.29 58.12 L33.19 58.15 L32.09 58.18 L30.99 58.21 L29.89 58.24 L28.80 58.26 L27.71 58.29 L26.64 58.32 L25.58 58.35 L24.53 58.38 L23.49 58.41 L22.47 58.43 L21.47 58.46 L20.49 58.49 L19.53 58.52 L18.60 58.54 L17.69 58.57 L16.80 58.60 L15.95 58.62 L15.13 58.65 L14.34 58.67 L13.59 58.70 L13.61 60.50 L14.36 60.51 L15.15 60.52 L15.97 60.53 L16.82 60.54 L17.71 60.55 L18.62 60.55 L19.55 60.56 L20.51 60.57 L21.49 60.58 L22.49 60.58 L23.51 60.59 L24.55 60.60 L25.60 60.61 L26.66 60.61 L27.74 60.62 L28.82 60.62 L29.91 60.63 L31.01 60.64 L32.11 60.64 L33.21 60.65 L34.32 60.66 L35.42 60.66 L36.51 60.67 L37.60 60.68 L38.69 60.68 L39.76 60.69 L40.83 60.69 L41.88 60.70 L42.91 60.71 L43.93 60.72 L44.93 60.72 L45.92 60.73 L46.87 60.74 L47.81 60.75 L48.72 60.75 L49.60 60.76 L50.45 60.73 L51.27 60.51 L52.06 60.20 L52.80 59.20 Z"/><path d="M14.20 60.00 L15.26 58.93 L15.59 57.81 L15.82 56.64 L15.85 55.43 L15.83 54.18 L15.82 52.88 L15.81 51.55 L15.80 50.18 L15.78 48.79 L15.77 47.36 L15.76 45.91 L15.75 44.44 L15.73 42.94 L15.72 41.43 L15.71 39.90 L15.70 38.35 L15.69 36.80 L15.67 35.24 L15.66 33.67 L15.65 32.10 L15.64 30.54 L15.63 28.97 L15.61 27.41 L15.60 25.85 L15.59 24.31 L15.58 22.78 L15.57 21.27 L15.55 19.77 L15.54 18.30 L15.53 16.85 L15.52 15.42 L15.50 14.02 L15.49 12.66 L15.48 11.33 L15.47 10.03 L15.45 8.78 L15.44 7.57 L15.43 6.40 L15.41 5.28 L15.40 4.20 L13.40 4.20 L13.38 5.27 L13.36 6.39 L13.34 7.56 L13.31 8.77 L13.29 10.03 L13.27 11.32 L13.25 12.65 L13.22 14.02 L13.20 15.41 L13.18 16.84 L13.16 18.29 L13.13 19.76 L13.11 21.26 L13.09 22.77 L13.07 24.30 L13.04 25.85 L13.02 27.40 L13.00 28.96 L12.97 30.53 L12.95 32.10 L12.93 33.66 L12.90 35.23 L12.88 36.79 L12.86 38.34 L12.83 39.89 L12.81 41.42 L12.79 42.93 L12.77 44.43 L12.74 45.90 L12.72 47.35 L12.70 48.78 L12.68 50.17 L12.65 51.54 L12.63 52.87 L12.61 54.16 L12.59 55.42 L12.61 56.63 L12.83 57.80 L13.15 58.92 L14.20 60.00 Z"/><path d="M41.30 5.50 L40.74 5.71 L40.57 5.92 L40.45 6.15 L40.44 6.39 L40.45 6.63 L40.46 6.88 L40.47 7.14 L40.48 7.40 L40.49 7.67 L40.50 7.95 L40.51 8.23 L40.52 8.51 L40.53 8.80 L40.54 9.10 L40.55 9.39 L40.56 9.69 L40.57 9.99 L40.58 10.29 L40.59 10.60 L40.60 10.90 L40.61 11.20 L40.62 11.51 L40.63 11.81 L40.64 12.11 L40.65 12.41 L40.66 12.70 L40.67 13.00 L40.68 13.29 L40.69 13.57 L40.70 13.85 L40.71 14.13 L40.72 14.40 L40.73 14.66 L40.74 14.92 L40.75 15.17 L40.76 15.41 L40.77 15.65 L40.78 15.88 L40.79 16.09 L40.80 16.30 L41.80 16.30 L41.81 16.09 L41.82 15.88 L41.83 15.65 L41.84 15.41 L41.85 15.17 L41.86 14.92 L41.87 14.66 L41.88 14.40 L41.89 14.13 L41.90 13.85 L41.91 13.57 L41.92 13.29 L41.93 13.00 L41.94 12.70 L41.95 12.41 L41.96 12.11 L41.97 11.81 L41.98 11.51 L41.99 11.20 L42.00 10.90 L42.01 10.60 L42.02 10.29 L42.03 9.99 L42.04 9.69 L42.05 9.39 L42.06 9.10 L42.07 8.80 L42.08 8.51 L42.09 8.23 L42.10 7.95 L42.11 7.67 L42.12 7.40 L42.13 7.14 L42.14 6.88 L42.15 6.63 L42.16 6.39 L42.15 6.15 L42.03 5.92 L41.86 5.71 L41.30 5.50 Z"/><path d="M41.00 16.10 L41.22 16.66 L41.44 16.83 L41.67 16.94 L41.92 16.95 L42.17 16.94 L42.43 16.93 L42.70 16.91 L42.97 16.90 L43.25 16.89 L43.54 16.88 L43.83 16.86 L44.12 16.85 L44.43 16.84 L44.73 16.83 L45.04 16.81 L45.35 16.80 L45.66 16.79 L45.97 16.78 L46.29 16.76 L46.60 16.75 L46.91 16.74 L47.23 16.73 L47.54 16.71 L47.85 16.70 L48.16 16.69 L48.47 16.68 L48.77 16.66 L49.08 16.65 L49.37 16.64 L49.66 16.62 L49.95 16.61 L50.23 16.60 L50.50 16.59 L50.77 16.58 L51.03 16.56 L51.28 16.55 L51.53 16.54 L51.76 16.53 L51.98 16.51 L52.20 16.50 L52.20 15.70 L51.98 15.69 L51.76 15.68 L51.53 15.66 L51.28 15.65 L51.03 15.64 L50.77 15.63 L50.50 15.61 L50.23 15.60 L49.95 15.59 L49.66 15.58 L49.37 15.56 L49.08 15.55 L48.77 15.54 L48.47 15.53 L48.16 15.51 L47.85 15.50 L47.54 15.49 L47.23 15.48 L46.91 15.46 L46.60 15.45 L46.29 15.44 L45.97 15.43 L45.66 15.41 L45.35 15.40 L45.04 15.39 L44.73 15.38 L44.43 15.36 L44.12 15.35 L43.83 15.34 L43.54 15.33 L43.25 15.31 L42.97 15.30 L42.70 15.29 L42.43 15.28 L42.17 15.26 L41.92 15.25 L41.67 15.26 L41.44 15.37 L41.22 15.54 L41.00 16.10 Z"/></g><g filter="url(#rough)" fill="#2E4A6B"><path d="M27.00 29.00 L26.21 28.58 L25.86 28.56 L25.57 28.60 L25.40 28.76 L25.25 28.95 L25.10 29.14 L24.94 29.34 L24.77 29.54 L24.61 29.75 L24.44 29.96 L24.26 30.17 L24.08 30.39 L23.90 30.61 L23.72 30.83 L23.54 31.06 L23.35 31.29 L23.16 31.52 L22.98 31.75 L22.79 31.98 L22.60 32.21 L22.41 32.44 L22.22 32.67 L22.03 32.90 L21.84 33.13 L21.66 33.36 L21.47 33.59 L21.29 33.81 L21.11 34.03 L20.93 34.25 L20.76 34.46 L20.59 34.67 L20.42 34.88 L20.26 35.08 L20.10 35.28 L19.94 35.47 L19.79 35.66 L19.65 35.84 L19.51 36.01 L19.37 36.18 L19.25 36.34 L20.75 37.66 L20.89 37.51 L21.04 37.36 L21.20 37.20 L21.36 37.03 L21.52 36.86 L21.69 36.68 L21.87 36.49 L22.04 36.30 L22.23 36.11 L22.41 35.91 L22.60 35.71 L22.80 35.51 L22.99 35.30 L23.19 35.09 L23.39 34.87 L23.59 34.66 L23.79 34.44 L23.99 34.23 L24.20 34.01 L24.40 33.79 L24.61 33.57 L24.81 33.35 L25.01 33.14 L25.22 32.92 L25.42 32.71 L25.62 32.49 L25.82 32.28 L26.01 32.07 L26.20 31.87 L26.39 31.67 L26.58 31.47 L26.76 31.28 L26.94 31.09 L27.11 30.90 L27.28 30.72 L27.45 30.55 L27.58 30.36 L27.59 30.07 L27.52 29.73 L27.00 29.00 Z"/><path d="M20.00 37.00 L19.58 37.64 L19.55 37.95 L19.58 38.22 L19.72 38.40 L19.89 38.57 L20.07 38.74 L20.25 38.92 L20.43 39.11 L20.62 39.29 L20.81 39.49 L21.01 39.68 L21.21 39.88 L21.41 40.09 L21.61 40.29 L21.82 40.50 L22.02 40.71 L22.23 40.92 L22.44 41.13 L22.65 41.35 L22.86 41.56 L23.07 41.77 L23.28 41.99 L23.49 42.20 L23.70 42.41 L23.90 42.62 L24.11 42.83 L24.31 43.03 L24.51 43.24 L24.71 43.44 L24.91 43.63 L25.10 43.82 L25.29 44.01 L25.47 44.20 L25.65 44.38 L25.83 44.55 L26.00 44.72 L26.16 44.88 L26.32 45.04 L26.48 45.19 L26.62 45.33 L27.38 44.67 L27.25 44.51 L27.13 44.33 L26.99 44.15 L26.85 43.97 L26.71 43.78 L26.56 43.58 L26.41 43.38 L26.25 43.17 L26.09 42.96 L25.92 42.74 L25.75 42.52 L25.58 42.30 L25.41 42.07 L25.23 41.85 L25.05 41.62 L24.87 41.38 L24.69 41.15 L24.51 40.91 L24.32 40.68 L24.14 40.44 L23.96 40.20 L23.77 39.97 L23.59 39.73 L23.41 39.50 L23.23 39.27 L23.05 39.03 L22.87 38.81 L22.70 38.58 L22.53 38.36 L22.36 38.14 L22.19 37.92 L22.03 37.71 L21.87 37.50 L21.72 37.30 L21.57 37.10 L21.42 36.91 L21.26 36.75 L21.00 36.68 L20.69 36.66 L20.00 37.00 Z"/><path d="M38.00 29.00 L37.48 29.73 L37.41 30.07 L37.42 30.36 L37.55 30.55 L37.72 30.72 L37.89 30.90 L38.06 31.09 L38.24 31.28 L38.42 31.47 L38.61 31.67 L38.80 31.87 L38.99 32.07 L39.18 32.28 L39.38 32.49 L39.58 32.71 L39.78 32.92 L39.99 33.14 L40.19 33.35 L40.39 33.57 L40.60 33.79 L40.80 34.01 L41.01 34.23 L41.21 34.44 L41.41 34.66 L41.61 34.87 L41.81 35.09 L42.01 35.30 L42.20 35.51 L42.40 35.71 L42.59 35.91 L42.77 36.11 L42.96 36.30 L43.13 36.49 L43.31 36.68 L43.48 36.86 L43.64 37.03 L43.80 37.20 L43.96 37.36 L44.11 37.51 L44.25 37.66 L45.75 36.34 L45.63 36.18 L45.49 36.01 L45.35 35.84 L45.21 35.66 L45.06 35.47 L44.90 35.28 L44.74 35.08 L44.58 34.88 L44.41 34.67 L44.24 34.46 L44.07 34.25 L43.89 34.03 L43.71 33.81 L43.53 33.59 L43.34 33.36 L43.16 33.13 L42.97 32.90 L42.78 32.67 L42.59 32.44 L42.40 32.21 L42.21 31.98 L42.02 31.75 L41.84 31.52 L41.65 31.29 L41.46 31.06 L41.28 30.83 L41.10 30.61 L40.92 30.39 L40.74 30.17 L40.56 29.96 L40.39 29.75 L40.23 29.54 L40.06 29.34 L39.90 29.14 L39.75 28.95 L39.60 28.76 L39.43 28.60 L39.14 28.56 L38.79 28.58 L38.00 29.00 Z"/><path d="M45.00 37.00 L44.31 36.66 L44.00 36.68 L43.74 36.75 L43.58 36.91 L43.43 37.10 L43.28 37.30 L43.13 37.50 L42.97 37.71 L42.81 37.92 L42.64 38.14 L42.47 38.36 L42.30 38.58 L42.13 38.81 L41.95 39.03 L41.77 39.27 L41.59 39.50 L41.41 39.73 L41.23 39.97 L41.04 40.20 L40.86 40.44 L40.68 40.68 L40.49 40.91 L40.31 41.15 L40.13 41.38 L39.95 41.62 L39.77 41.85 L39.59 42.07 L39.42 42.30 L39.25 42.52 L39.08 42.74 L38.91 42.96 L38.75 43.17 L38.59 43.38 L38.44 43.58 L38.29 43.78 L38.15 43.97 L38.01 44.15 L37.87 44.33 L37.75 44.51 L37.62 44.67 L38.38 45.33 L38.52 45.19 L38.68 45.04 L38.84 44.88 L39.00 44.72 L39.17 44.55 L39.35 44.38 L39.53 44.20 L39.71 44.01 L39.90 43.82 L40.09 43.63 L40.29 43.44 L40.49 43.24 L40.69 43.03 L40.89 42.83 L41.10 42.62 L41.30 42.41 L41.51 42.20 L41.72 41.99 L41.93 41.77 L42.14 41.56 L42.35 41.35 L42.56 41.13 L42.77 40.92 L42.98 40.71 L43.18 40.50 L43.39 40.29 L43.59 40.09 L43.79 39.88 L43.99 39.68 L44.19 39.49 L44.38 39.29 L44.57 39.11 L44.75 38.92 L44.93 38.74 L45.11 38.57 L45.28 38.40 L45.42 38.22 L45.45 37.95 L45.42 37.64 L45.00 37.00 Z"/></g><g filter="url(#dry)" fill="#A39B8C"><path d="M20.00 52.00 L20.31 52.80 L20.63 53.04 L20.96 53.20 L21.31 53.21 L21.67 53.18 L22.04 53.16 L22.42 53.13 L22.82 53.11 L23.22 53.09 L23.62 53.06 L24.04 53.04 L24.46 53.01 L24.89 52.99 L25.33 52.97 L25.77 52.94 L26.21 52.92 L26.65 52.90 L27.10 52.87 L27.55 52.85 L28.00 52.83 L28.45 52.80 L28.90 52.78 L29.35 52.75 L29.79 52.73 L30.23 52.71 L30.67 52.68 L31.11 52.66 L31.54 52.63 L31.96 52.61 L32.38 52.59 L32.78 52.56 L33.18 52.54 L33.58 52.52 L33.96 52.49 L34.33 52.47 L34.69 52.45 L35.04 52.42 L35.37 52.40 L35.69 52.37 L36.00 52.35 L36.00 51.65 L35.69 51.63 L35.37 51.60 L35.04 51.58 L34.69 51.55 L34.33 51.53 L33.96 51.51 L33.58 51.48 L33.18 51.46 L32.78 51.44 L32.38 51.41 L31.96 51.39 L31.54 51.37 L31.11 51.34 L30.67 51.32 L30.23 51.29 L29.79 51.27 L29.35 51.25 L28.90 51.22 L28.45 51.20 L28.00 51.17 L27.55 51.15 L27.10 51.13 L26.65 51.10 L26.21 51.08 L25.77 51.06 L25.33 51.03 L24.89 51.01 L24.46 50.98 L24.04 50.96 L23.62 50.94 L23.22 50.91 L22.82 50.89 L22.42 50.87 L22.04 50.84 L21.67 50.82 L21.31 50.80 L20.96 50.80 L20.63 50.96 L20.31 51.20 L20.00 52.00 Z"/></g></svg>
